<svg fill="none" xmlns="http://www.w3.org/2000/svg" viewBox="0 0 752 257">
  <path d="M258.38 57.24h259.63v172.44H258.38V57.24z" fill="#458FD6"/>
  <path opacity=".1" d="M518.01 226.43H258.38v3.25h259.63v-3.25z" fill="#000"/>
  <path d="M270.15 70.66v146.42h234.48V70.66H270.14z" stroke="#559DE2"/>
  <path d="M285.97 70.17h.81v147.07h-.81V70.17zM303 70.17h.82v147.07h-.81V70.17zM319.23 70.17h.82v147.07h-.82V70.17zM336.27 70.17h.81v147.07h-.8V70.17zM352.5 70.17h.81v147.07h-.81V70.17zM369.54 70.17h.81v147.07h-.81V70.17zM386.57 70.17h.82v147.07h-.81V70.17zM402.8 70.17h.81v147.07h-.8V70.17zM419.84 70.17h.81v147.07h-.81V70.17zM436.07 70.17h.8v147.07h-.8V70.17zM453.1 70.17h.82v147.07h-.82V70.17zM469.33 70.17h.81v147.07h-.8V70.17zM486.37 70.26h.81V217.4h-.81V70.26z" fill="#559DE2"/>
  <path d="M270.8 87.26v-.82h234.4v.82H270.8zM270.8 103.52v-.8h234.4v.8H270.8zM270.8 119.8v-.82h234.4v.81H270.8zM270.8 136.06v-.81h234.4v.81H270.8zM270.8 152.33v-.82h234.4v.82H270.8zM270.8 168.6v-.82h234.4v.82H270.8zM270.8 184.86v-.8h234.4v.8H270.8zM270.8 201.13v-.81h234.4v.81H270.8z" fill="#559DE2"/>
  <path opacity=".2" d="M301.7 70.26L517.7 229.1l-259.3.9.4-128.52 42.92-31.23z" fill="#97C5F1"/>
  <g opacity=".6">
    <path opacity=".6" d="M397.93 199.59h42.2v-70.77c-1.06-21.96-18.91-39.04-40.57-39.04a40.63 40.63 0 00-40.57 40.67v23.02h9.74v16.27c0 8.05 6.57 14.64 14.6 14.64h14.6v15.2zM396.31 186h-12.98a16.3 16.3 0 01-16.23-16.26v-14.65h-9.73v-24.64c0-23.35 18.9-42.3 42.19-42.3a42.23 42.23 0 0142.1 40.26c0 .17.09.25.09.41v72.4H396.3V186z" fill="#fff"/>
    <path opacity=".6" d="M414.4 117.52a.79.79 0 010-1.14.78.78 0 011.14 0l20.69 20.74c.32.32.32.81 0 1.14a.78.78 0 01-1.14 0l-20.69-20.74zM440.04 96.45c-.16.4-.65.57-1.05.4-.4-.16-.57-.65-.4-1.05l4.21-9.52c.16-.4.65-.57 1.06-.4.4.16.56.64.4 1.05l-4.22 9.52zM444.75 101.57c-.4.16-.9 0-1.06-.4-.16-.41 0-.9.4-1.06l11.12-4.64c.41-.16.9 0 1.06.4.16.41 0 .9-.4 1.07l-11.12 4.63zM445.72 108.4a.95.95 0 01-.73-.89c.08-.4.49-.73.9-.73l11.68 1.62c.4.09.73.5.73.9a.95.95 0 01-.9.73l-11.68-1.63z" fill="#fff"/>
    <path opacity=".6" d="M363.86 130.45h48.68v.81a16.25 16.25 0 0016.22 15.46h1.63v39.85a2.4 2.4 0 002.43 2.44 2.4 2.4 0 002.44-2.44v-56.12a35.74 35.74 0 00-35.7-35.8 35.74 35.74 0 00-35.7 35.8zm64.9 17.9A17.9 17.9 0 01411 132.06h-48.77v-1.62a37.37 37.37 0 0137.33-37.42 37.37 37.37 0 0137.32 37.42v56.12a4.02 4.02 0 01-4.06 4.07 4.02 4.02 0 01-4.06-4.07v-38.23z" fill="#fff"/>
    <path opacity=".6" d="M394.6 103.6h-18.57c-.49 0-.81-.32-.81-.8 0-.5.32-.82.8-.82h19c.24 0 .48.08.56.24l5.44 6.18h9.25c.48 0 .8.33.8.82 0 .49-.32.81-.8.81h-9.58c-.24 0-.49-.08-.57-.24l-5.51-6.19zM299.76 128a3.26 3.26 0 00-3.24 3.26v20.42a3.26 3.26 0 003.24 3.25h27.83l7.87 5.61v-29.28a3.26 3.26 0 00-3.25-3.25h-32.45zm0 28.56a4.89 4.89 0 01-4.87-4.88v-20.42c0-2.68 2.2-4.88 4.87-4.88h32.45c2.68 0 4.87 2.2 4.87 4.88v32.46l-10.06-7.08h-27.26v-.08zM320.86 200.32a3.26 3.26 0 01-3.25-3.25v-12.29a3.26 3.26 0 013.25-3.25h19.71l7.87-5.61v21.15a3.26 3.26 0 01-3.24 3.25h-24.34zm0-20.5a4.89 4.89 0 00-4.87 4.88v12.28c0 2.69 2.19 4.88 4.87 4.88h24.34c2.67 0 4.87-2.2 4.87-4.88v-24.24L340 179.82h-19.14z" fill="#fff"/>
    <path opacity=".6" d="M305.12 137.93c-.5 0-.81-.32-.81-.81 0-.49.32-.82.8-.82h21.1c.49 0 .81.33.81.82 0 .49-.32.81-.8.81h-21.1zM305.12 146.06c-.5 0-.81-.32-.81-.8 0-.5.32-.82.8-.82h15.42c.49 0 .81.32.81.81 0 .49-.32.81-.8.81h-15.42zM375.22 144.28a3.25 3.25 0 10-.01-6.5 3.25 3.25 0 000 6.5zM432.66 115.16c.48 0 .81.32.81.8 0 .5-.33.82-.81.82h-10.71a.74.74 0 01-.57-.24l-6.4-6.5a.74.74 0 01-.25-.58v-4.88c0-.49.32-.81.8-.81.5 0 .82.32.82.81v4.48l5.92 6.01h10.39v.09zM393.47 111.98a.78.78 0 011.14 0c.32.33.32.82 0 1.14l-4.38 4.4a.73.73 0 01-.57.24h-16.47c-.49 0-.81-.33-.81-.82 0-.48.32-.8.8-.8h16.15l4.14-4.16zM363.86 124.6c-.49 0-.81-.33-.81-.82 0-.49.32-.82.8-.82h19c.48 0 .8.33.8.82 0 .49-.32.81-.8.81h-19z" fill="#fff"/>
    <path opacity=".6" d="M371.97 119.06a2.44 2.44 0 100-4.88 2.44 2.44 0 000 4.88zM394.69 114.18a2.44 2.44 0 100-4.87 2.44 2.44 0 000 4.87zM409.3 111.74a2.44 2.44 0 10-.01-4.87 2.44 2.44 0 000 4.87zM415.78 106.86a2.44 2.44 0 100-4.88 2.44 2.44 0 000 4.88zM423.08 136.14a2.44 2.44 0 100-4.87 2.44 2.44 0 000 4.87z" fill="#fff"/>
    <path opacity=".6" d="M386.74 117.68l6.16 6.18h20.77l5.36 5.37M394.69 118.25l5.43 5.45" stroke="#fff" stroke-width="2" stroke-linecap="round" stroke-linejoin="round"/>
    <path opacity=".6" d="M327.35 102.71c-.49-.4-.4-1.22.24-1.38l23.29-8.3c.73-.24 1.38.65.89 1.3l-12.82 16.43a.87.87 0 01-1.14.17l-10.46-8.22zm10.79 6.43l10.63-13.67-19.23 6.83 8.6 6.84zM328.16 84.9a4.02 4.02 0 01-4.06-4.07 4.02 4.02 0 014.06-4.07 4.02 4.02 0 014.05 4.07 4.02 4.02 0 01-4.05 4.07zm0-1.63a2.4 2.4 0 002.43-2.44 2.4 2.4 0 00-2.43-2.44 2.4 2.4 0 00-2.44 2.44 2.4 2.4 0 002.44 2.44z" fill="#fff"/>
    <g opacity=".6" fill="#fff">
      <path opacity=".6" d="M478.74 99.21c-.24-.57.17-1.22.81-1.14l22.48 2.6c.81.09.97 1.23.24 1.55l-17.12 8.3c-.4.16-.89 0-1.05-.4l-5.36-10.9zm6.41 9.52l13.96-6.83-18.26-2.12 4.3 8.95zM470.87 107.51a3.99 3.99 0 010-7.97 3.99 3.99 0 010 7.97zm0-1.63a2.36 2.36 0 100-4.71 2.36 2.36 0 000 4.71zM483.45 88.31l4.54-2.2-2.19-4.55-4.54 2.2 2.19 4.55zm-4.38-5.28l7.46-3.66 3.65 7.48-7.46 3.66-3.65-7.48z"/>
    </g>
    <path opacity=".6" d="M305.93 87.17l-4.38 7.98 7.95 4.39 4.38-7.97-7.95-4.4zm-.65-2.27l10.79 6.02-6 10.81-10.71-5.93 5.92-10.9z" fill="#fff"/>
  </g>
  <path opacity=".06" d="M8.5 223.18h734.82a6.52 6.52 0 010 13.01H8.5a6.52 6.52 0 010-13.01z" fill="#000"/>
  <path d="M203.37 217.27l8.52-4.74-47.19-85.36-8.52 4.74 47.19 85.36z" fill="#666"/>
  <path opacity=".2" d="M171.73 140.05a14 14 0 01-8.84 4.22l-6.73-12.36 8.51-4.72 7.06 12.86z" fill="#000"/>
  <path d="M186.99 210.16h82.75a3.26 3.26 0 013.25 3.25v16.27h-89.25v-16.27a3.26 3.26 0 013.25-3.25z" fill="#E86E6E"/>
  <path d="M182.93 219.92h90.87a3.26 3.26 0 013.24 3.26v6.5h-97.36v-6.5a3.26 3.26 0 013.25-3.26z" fill="#D25D5D"/>
  <path d="M165.1 135.55l78.78-57.37-5.72-7.9-78.77 57.38 5.72 7.9z" fill="#666"/>
  <path opacity=".2" d="M175.38 128l-10.3 7.5-5.76-7.9 11.03-8.05a14.09 14.09 0 015.03 8.46z" fill="#000"/>
  <path d="M161.83 141.84c6.28 0 11.36-5.1 11.36-11.4 0-6.28-5.08-11.38-11.36-11.38-6.27 0-11.36 5.1-11.36 11.39 0 6.29 5.1 11.39 11.36 11.39z" fill="#868686"/>
  <path d="M257.57 203.65h-24.34v6.51h24.34v-6.5z" fill="#666"/>
  <path d="M274.76 100.83a10.6 10.6 0 002.35-14.77 10.53 10.53 0 00-14.74-2.34 10.6 10.6 0 00-2.34 14.77 10.53 10.53 0 0014.74 2.34z" fill="#FFDD30"/>
  <path d="M241.52 114.6l56.45-41.12a1.62 1.62 0 111.9 2.63l-56.45 41.11a1.62 1.62 0 11-1.9-2.63z" fill="#FAFAFA"/>
  <path d="M224.5 55l22.33-16.26a6.5 6.5 0 019.06 1.44l11.44 15.79-32.82 23.9-11.44-15.78A6.54 6.54 0 01224.5 55z" fill="#E86E6E"/>
  <path d="M249.19 47.68l7.88-5.74 4.76 6.58-7.88 5.74-4.76-6.58z" fill="url(#paint0_linear)"/>
  <path opacity=".1" d="M233.77 78.98l32.82-23.91-1.9-2.63-32.83 23.9 1.9 2.64z" fill="#000"/>
  <path d="M234.1 79.18l32.77-23.86a6.42 6.42 0 016.92-.42l27.32 14.87c.8.42 1.11 1.4.7 2.2-.16.21-.3.42-.5.57l-61.56 44.74c-.73.53-1.75.37-2.27-.36-.14-.2-.22-.44-.3-.69l-5.66-30.64a6.53 6.53 0 012.59-6.4z" fill="#E86E6E"/>
  <path opacity=".1" d="M277.04 226.43h-97.36v3.25h97.36v-3.25z" fill="#000"/>
  <path d="M161.83 135.33a4.87 4.87 0 100-9.75 4.87 4.87 0 000 9.75z" fill="#666"/>
  <path d="M672.17 123.94H589.4v105.74h82.76V123.94z" fill="url(#paint1_linear)"/>
  <path d="M664.05 133.7h-66.53v85.4h66.53v-85.4z" fill="#CCC"/>
  <path d="M664.05 131.26h-66.53v84.6h66.53v-84.6z" fill="#E6E6E6"/>
  <path d="M597.52 132.89h66.53v79.71h-66.53V132.9z" fill="#EBEBEB"/>
  <path d="M664.05 131.26h-66.53v81.34h66.53v-81.34z" fill="url(#paint2_linear)"/>
  <path d="M617 164.37v-3.26h38.86v3.26h-38.87zM617 177.06v-3.26h38.86v3.26h-38.87zM617 189.83v-3.26h38.86v3.26h-38.87zM617 151.6v-3.26h30.75v3.26H617z" fill="#C5C5C5"/>
  <path d="M650.26 114.18h-37.32v21.15h37.32v-21.15z" fill="#D2D2D2"/>
  <path opacity=".2" d="M650.26 114.18h-37.32v4.88h37.32v-4.88z" fill="#fff"/>
  <path d="M624.3 115.8h-9.74v1.63h9.74v-1.62z" fill="#fff"/>
  <path opacity=".1" d="M650.26 124.75h-37.32v10.58h37.32v-10.58zM650.26 135.33h-37.32v1.63h37.32v-1.63z" fill="#000"/>
  <path d="M664.05 212.6h-66.53v.81h66.53v-.8zM664.05 215.85h-66.53v.82h66.53v-.81zM664.05 219.1h-66.53v.82h66.53v-.81z" fill="#000" fill-opacity=".1"/>
  <path opacity=".1" d="M672.17 226.43H589.4v3.25h82.76v-3.25z" fill="#000"/>
  <path d="M605.56 149.16l1.94 2.03 3.82-3.82M605.56 162.17l1.94 2.03 3.82-3.82M605.56 174.37l1.94 2.03 3.82-3.82M605.56 187.39l1.94 2.03 3.82-3.82" stroke="#5CBF5C" stroke-width="2" stroke-linecap="round" stroke-linejoin="round"/>
  <path d="M583.08 199.42v-3.09c0-.49.4-.81.81-.81h6.17c.49 0 .81.4.81.81v2.93c.97.25 1.87.57 2.76 1.06l2.03-2.03a.78.78 0 011.13 0l4.38 4.39c.33.32.33.81 0 1.14l-1.78 1.79c.57.9.97 1.87 1.3 2.92h2.43c.49 0 .81.41.81.82v6.18c0 .49-.4.81-.8.81h-2.28c-.33 1.14-.73 2.2-1.3 3.17l1.54 1.55c.33.33.33.81 0 1.14l-4.38 4.4a.78.78 0 01-1.13 0l-1.55-1.55c-.97.57-2.02.97-3.16 1.3v2.52c0 .49-.4.81-.81.81h-6.17a.81.81 0 01-.8-.81v-2.44a15.9 15.9 0 01-2.93-1.3l-1.78 1.79a.78.78 0 01-1.14 0l-4.38-4.4a.79.79 0 010-1.13l2.03-2.04c-.4-.9-.81-1.79-1.06-2.76h-3.08a.81.81 0 01-.81-.82v-6.18c0-.49.4-.81.8-.81h3.1c.32-.98.64-1.87 1.13-2.69l-2.2-2.2c-.4-.32-.4-.8-.07-1.13l4.38-4.4a.78.78 0 011.13 0l2.27 2.2c.82-.49 1.7-.81 2.6-1.14z" fill="url(#paint3_linear)"/>
  <path d="M586.98 223.1c5.78 0 10.46-4.7 10.46-10.5s-4.68-10.5-10.46-10.5c-5.78 0-10.47 4.7-10.47 10.5s4.69 10.5 10.47 10.5z" fill="url(#paint4_linear)"/>
  <path d="M586.98 218.54a5.93 5.93 0 10-.02-11.86 5.93 5.93 0 00.01 11.86z" fill="url(#paint5_linear)"/>
  <path d="M97.8 109.56l24.02-4.26 17.7 100.92-24 4.25L97.8 109.56z" fill="#5AA16E"/>
  <path d="M115.54 210.47l8.8-1.56L106.62 108l-8.8 1.56 17.73 100.92z" fill="#63B079"/>
  <path opacity=".2" d="M120.5 126.18l1.6-.29-2.53-14.41-1.6.28 2.53 14.42z" fill="#000"/>
  <path d="M98.37 112.75l5.6-1 .28 1.6-5.6 1-.28-1.6zm1.4 8l5.61-.98.28 1.6-5.6.99-.28-1.6zm-.7-4l3.2-.56.29 1.6-3.2.56-.29-1.6zm1.41 8.01l3.2-.56.28 1.6-3.2.56-.28-1.6zm1.4 8.01l3.21-.56.28 1.6-3.2.57-.28-1.6zm1.42 8.01l3.2-.56.28 1.6-3.2.57-.28-1.6zm1.4 8.01l3.2-.56.29 1.6-3.2.57-.28-1.6zm-3.52-20.02l5.6-1 .29 1.6-5.6 1-.28-1.6zm1.41 8l5.6-.98.29 1.6-5.6 1-.29-1.61zm1.41 8.02l5.6-1 .29 1.61-5.6 1-.29-1.61zm1.4 8l5.61-.98.28 1.6-5.6 1-.28-1.61zm1.42 8.02l5.6-1 .28 1.61-5.6 1-.28-1.61zm-.7-4l3.2-.57.28 1.6-3.2.57-.29-1.6zm1.4 8l3.2-.56.28 1.6-3.2.57-.28-1.6zm1.4 8.01l3.21-.56.28 1.6-3.2.57-.28-1.6zm1.42 8.02l3.2-.57.28 1.6-3.2.57-.28-1.6zm1.4 8l3.2-.56.29 1.6-3.2.57-.28-1.6zm-3.52-20.02l5.6-1 .29 1.61-5.6 1-.29-1.61zm1.41 8.01l5.6-1 .29 1.61-5.6 1-.29-1.61zm1.41 8.01l5.6-1 .29 1.61-5.6 1-.29-1.61zm1.4 8.01l5.61-1 .28 1.61-5.6 1-.28-1.61zm1.42 8.01l5.6-.99.28 1.6-5.6 1-.28-1.6zm-.7-4l3.2-.57.28 1.6-3.2.57-.29-1.6zm1.4 8l3.2-.56.28 1.6-3.2.57-.28-1.6z" fill="#000" fill-opacity=".2"/>
  <path d="M144.42 121.9l13.97 1.47-10.18 97.31-13.98-1.47 10.19-97.32z" fill="#FDC85F"/>
  <path d="M148.22 122.3l6.38.67-10.2 97.31-6.38-.67 10.2-97.32z" fill="#FDDD5F"/>
  <path d="M144.44 121.89l8.8-16.32 5.16 17.8-13.97-1.48z" fill="#FCF3CA"/>
  <path d="M150.1 111.37l3.14-5.8 1.79 6.32c-.84.24-1.67.31-2.55.22a12.9 12.9 0 01-2.37-.74z" fill="#23282E"/>
  <path d="M148.24 122.26c-.07.71 1.27 1.44 3.01 1.63 1.74.18 3.21-.25 3.29-.97.07-.71-1.28-1.44-3.02-1.62-1.74-.19-3.2.25-3.28.96zM146.16 123.38c1.04.11 2-.36 2.07-1.09.07-.72-.75-1.38-1.8-1.5-1.05-.1-1.8.72-2 1.1-.07.73.68 1.38 1.72 1.5z" fill="#FCF3CA"/>
  <path d="M156.32 124.45c1.05.12 2-.36 2.07-1.09-.25-.68-.75-1.38-1.8-1.5-1.05-.1-2 .37-2.07 1.1 0 .73.75 1.38 1.8 1.5z" fill="#FCF3CA"/>
  <path d="M136.88 100.77l3.98 11.46-2.44 7.08h-6.49l-2.43-7.16 3.97-11.39a2.75 2.75 0 01-.73-1.78 2.4 2.4 0 012.44-2.44 2.4 2.4 0 012.43 2.44c0 .73-.32 1.3-.73 1.78z" fill="#FFDD30"/>
  <path d="M135.99 108.98c.49.24.81.81.81 1.38 0 .9-.73 1.63-1.62 1.63-.9 0-1.63-.73-1.63-1.63 0-.57.33-1.14.82-1.38V96.54h1.62v12.44z" fill="#C2A825"/>
  <path d="M131.2 118.5h8.03c.9 0 1.63.73 1.63 1.62v.08l-3.25 96.72h-4.87l-3.16-96.71a1.6 1.6 0 011.62-1.71c-.08 0-.08 0 0 0z" fill="#494949"/>
  <path d="M131.2 118.5h8.03c.9 0 1.63.73 1.63 1.62v.08l-.49 12.94h-10.38l-.41-12.93a1.6 1.6 0 011.62-1.71c-.08 0-.08 0 0 0z" fill="#E5E5E5"/>
  <path opacity=".4" d="M131.2 118.5h8.03c.9 0 1.63.73 1.63 1.62h-11.28c0-.9.65-1.62 1.62-1.62-.08 0-.08 0 0 0z" fill="#fff"/>
  <path d="M102.6 156.48h53.56c.89 0 1.62.73 1.62 1.62v69.96c0 .9-.73 1.62-1.63 1.62h-53.54c-.9 0-1.63-.73-1.63-1.62V158.1c0-.9.73-1.62 1.63-1.62z" fill="#6B7A8C"/>
  <path d="M133.44 156.48h22.72c.89 0 1.62.73 1.62 1.62v69.96c0 .9-.73 1.62-1.63 1.62h-22.71v-73.2z" fill="#515D6B"/>
  <path d="M60.82 229.68c4.4 0 7.95-1.82 7.95-4.06 0-2.25-3.56-4.07-7.95-4.07-4.39 0-7.95 1.82-7.95 4.07 0 2.24 3.56 4.06 7.95 4.06z" fill="#636363"/>
  <path d="M41.67 191.37c-3-4.06-4.78-9.1-4.78-14.56 0-13.5 10.7-24.4 23.93-24.4s23.94 10.9 23.94 24.4c0 5.78-1.95 11.06-5.28 15.21-3.81 6.92-5.84 13.5-5.92 19.77H48c-.16-6.18-2.27-13.02-6.33-20.42z" fill="#FFDD30"/>
  <path d="M60.82 189.01c1.3 0 2.44 1.06 2.44 2.44v15.46h-4.8v-15.46a2.33 2.33 0 012.36-2.44z" fill="#FFB830"/>
  <path d="M74.53 204.47c-.24 1.06-.48 2.2-.64 3.25H47.68c-.16-1.06-.4-2.11-.65-3.25h27.5z" fill="#000" fill-opacity=".1"/>
  <path d="M48.08 206.9h25.48c.9 0 1.62.74 1.62 1.63v13.02c0 2.68-2.19 4.88-4.87 4.88H51.33a4.89 4.89 0 01-4.87-4.88v-13.02c0-.89.73-1.62 1.62-1.62z" fill="url(#paint6_linear)"/>
  <path d="M50.52 210.16H71.2a1.63 1.63 0 010 3.25H50.5c-.88 0-1.61-.73-1.61-1.62 0-.9.65-1.63 1.62-1.63zM50.52 215.04H71.2a1.63 1.63 0 010 3.25H50.5c-.88 0-1.61-.73-1.61-1.62 0-.9.65-1.63 1.62-1.63zM50.52 219.92H71.2a1.63 1.63 0 010 3.26H50.5c-.88 0-1.61-.74-1.61-1.63 0-.9.65-1.63 1.62-1.63z" fill="#BFBFBF"/>
  <path d="M64.47 183.64c.65.98 1.95.98 2.6 0l4.79-6.91c.48-.73.32-1.7-.41-2.28a1.56 1.56 0 00-2.19.4l-3.49 5.05-3.33-4.96c-.56-.9-1.86-.97-2.6-.08l-3.97 5.12-3-4.96a1.58 1.58 0 00-2.19-.49 1.67 1.67 0 00-.49 2.28l4.22 6.91a1.56 1.56 0 002.6.17l3.97-5.13 3.5 4.88z" fill="#FFB830"/>
  <path d="M67.88 161.03a1.67 1.67 0 01-.81-2.11c.32-.73 1.38-1.14 2.1-.82a19.4 19.4 0 018.93 8.14c.4.81.17 1.79-.65 2.2-.8.4-1.78.16-2.19-.66-1.54-2.93-3.97-5.12-7.38-6.75zM77.45 173c-.24-.9.25-1.8 1.14-2.03.9-.25 1.79.24 2.03 1.13.4 1.47.65 3.01.73 4.64.08.9-.65 1.63-1.54 1.7-.9.09-1.63-.64-1.7-1.54a27.96 27.96 0 00-.66-3.9z" fill="#fff"/>
  <path d="M712.33 195.11v17.08h5.27a5.27 5.27 0 005.27-5.28v-9.76c0-1.14-.89-2.04-2.02-2.04h-8.52zm8.52-5.7c4.22 0 7.7 3.5 7.7 7.74v9.76c0 6.1-4.86 10.98-10.95 10.98h-10.95v-28.47h14.2z" fill="#6A5E5E"/>
  <path opacity=".1" d="M718.41 217.89H707.05v-28.47h11.36v5.7h-6.08v17.07h5.27c.24 0 .57 0 .81-.08v5.78z" fill="#000"/>
  <path d="M722.06 160.57a2.4 2.4 0 01.9 3.33l-34.08 59.17a2.39 2.39 0 01-3.33.9 2.4 2.4 0 01-.89-3.34l34.07-59.17a2.39 2.39 0 013.33-.9z" fill="#D9D9D9"/>
  <path d="M685.72 224.07c-.09 0-.09-.08-.17-.08a2.5 2.5 0 01-.89-3.34l34.08-59.13a2.4 2.4 0 013.16-.98l-36.18 63.53z" fill="#fff" fill-opacity=".2"/>
  <path d="M715.98 182.5h-56.8v47.18h56.8V182.5z" fill="#786A6A"/>
  <path d="M663.73 188.77c0-.65.56-1.22 1.22-1.22.64 0 1.21.57 1.21 1.22v8.13c0 .65-.57 1.22-1.21 1.22-.66 0-1.22-.57-1.22-1.22v-8.13zm0 14.97c0-.66.56-1.23 1.22-1.23.64 0 1.21.57 1.21 1.23v2.84c0 .57-.49 1.14-1.21 1.14a1.2 1.2 0 01-1.22-1.22v-2.76z" fill="#E5E3E3"/>
  <path d="M689.2 153.71a6.4 6.4 0 00-3.57 6.59c.17 1.95.98 3 2.76 4.64l.16.16c1.3 1.06 1.7 1.63 1.79 2.6.24 1.63-.33 2.69-2.11 3.5a1.63 1.63 0 00-.73 2.2c.4.8 1.38 1.13 2.2.73 3-1.47 4.37-3.9 3.88-7-.32-1.95-1.13-3-2.92-4.55l-.16-.17c-1.22-1.05-1.62-1.54-1.7-2.44-.16-1.62.4-2.68 1.86-3.41.82-.4 1.06-1.38.65-2.2-.32-.73-1.3-1.06-2.1-.65z" fill="#F5F5F5"/>
  <path opacity=".1" d="M715.98 226.43a3.26 3.26 0 01-3.25 3.25h-50.3a3.26 3.26 0 01-3.25-3.25h56.8z" fill="#000"/>
  <path d="M453.67 77.25a35.3 35.3 0 0035.38-35.22 35.3 35.3 0 00-35.38-35.22 35.3 35.3 0 00-35.37 35.22 35.3 35.3 0 0035.37 35.22z" fill="#3E4C5C"/>
  <path d="M453.67 70.83c16 0 28.97-12.9 28.97-28.8s-12.97-28.8-28.97-28.8c-16 0-28.96 12.9-28.96 28.8s12.97 28.8 28.96 28.8z" fill="#2E3A46"/>
  <path d="M453.67 68.71a26.73 26.73 0 0026.78-26.68 26.73 26.73 0 00-26.78-26.68 26.73 26.73 0 00-26.77 26.68 26.73 26.73 0 0026.77 26.68z" fill="#fff"/>
  <path d="M453.67 45.2a3.2 3.2 0 003.25-3.17 3.2 3.2 0 00-3.25-3.17 3.2 3.2 0 00-3.24 3.17 3.2 3.2 0 003.24 3.17z" fill="#7B7B7B"/>
  <path d="M453.67 18.55c.57 0 1.05.49 1.05 1.06v3.17c0 .57-.48 1.06-1.05 1.06-.57.08-1.06-.4-1.06-1.06v-3.17c0-.57.49-1.06 1.06-1.06zM453.67 60.2c.57 0 1.05.49 1.05 1.06v3.17c0 .57-.48 1.06-1.05 1.06-.57 0-1.06-.5-1.06-1.06v-3.17c0-.57.49-1.06 1.06-1.06zM477.11 42.02c0 .57-.49 1.06-1.06 1.06h-3.16c-.57 0-1.05-.5-1.05-1.06-.08-.57.4-1.06 1.05-1.06h3.17c.56 0 1.05.49 1.05 1.06zM435.57 42.02c0 .57-.49 1.06-1.06 1.06h-3.16c-.57 0-1.05-.5-1.05-1.06 0-.57.48-1.06 1.05-1.06h3.16c.57 0 1.06.49 1.06 1.06zM470.24 25.42c.4.4.4 1.1 0 1.5L468 29.15c-.4.4-1.1.4-1.5 0-.45-.35-.45-1.04 0-1.5l2.24-2.24c.4-.4 1.1-.4 1.5 0zM440.86 54.87c.4.4.4 1.09 0 1.5l-2.23 2.23c-.4.4-1.1.4-1.5 0-.4-.4-.4-1.09 0-1.5l2.24-2.23c.4-.4 1.1-.4 1.5 0zM470.26 58.63c-.4.4-1.09.4-1.49 0l-2.24-2.24c-.4-.4-.4-1.1 0-1.5.35-.46 1.04-.46 1.5 0l2.23 2.24c.4.4.4 1.1 0 1.5zM440.89 29.18c-.4.4-1.1.4-1.5 0l-2.23-2.24c-.4-.4-.4-1.1 0-1.5.4-.4 1.09-.4 1.5 0l2.23 2.25c.4.4.4 1.09 0 1.5zM453.67 31.37a2.1 2.1 0 012.11 2.12v8.54a2.1 2.1 0 01-2.1 2.12 2.1 2.1 0 01-2.12-2.12v-8.54c0-1.14.98-2.12 2.11-2.12z" fill="#4D4D4D"/>
  <path d="M452.21 43.09a2.17 2.17 0 012.68-1.47l12.17 3.75a2.18 2.18 0 011.46 2.68 2.17 2.17 0 01-2.68 1.46l-12.17-3.74a2.21 2.21 0 01-1.46-2.68z" fill="#000" fill-opacity=".1"/>
  <path d="M452.21 42.11a2.17 2.17 0 012.68-1.46l12.25 3.5a2.18 2.18 0 011.46 2.68 2.17 2.17 0 01-2.68 1.46l-12.25-3.5a2.17 2.17 0 01-1.46-2.68z" fill="#4D4D4D"/>
  <path d="M494.16 179.25l-8.68 8.3a13 13 0 00-3.98 9.35v31.48c0 .25.16.4.4.4.17 0 .33-.07.41-.24 5.03-11.63 11.52-18.54 19.48-20.9-3.17-14.32-5.68-23.75-7.63-28.39zM541.05 179.25l8.69 8.3a13 13 0 013.97 9.35v31.48c0 .25-.16.4-.4.4a.45.45 0 01-.41-.24c-5.03-11.63-11.52-18.54-19.47-20.9 3.16-14.32 5.68-23.75 7.63-28.39z" fill="#E86E6E"/>
  <path d="M501.79 211.79h31.64l-.73 2.44h-30.18l-.73-2.44z" fill="#9C9C9C"/>
  <path opacity=".1" d="M497.08 209.35a130.96 130.96 0 01-8.28-25.22l5.2-4.88c1.94 4.56 4.46 14 7.62 28.23-1.62.4-3.08 1.05-4.54 1.87zm49.33-25.22a120.25 120.25 0 01-8.36 25.14 18.44 18.44 0 00-4.38-1.8c3.17-14.23 5.68-23.58 7.63-28.22l5.1 4.88z" fill="#000"/>
  <path d="M491.24 139.64c3-20.1 11.93-37.25 26.7-51.49a92.1 92.1 0 0125.95 51.49c4.06 25.7.9 50.02-9.49 72.96h-33.67c-10.22-22.94-13.39-47.26-9.5-72.96z" fill="url(#paint7_linear)"/>
  <path d="M538.3 204.47c-.98 2.76-2.11 5.45-3.33 8.13h-33.83a143.06 143.06 0 01-3.41-8.13h40.57z" fill="#D3D3D3"/>
  <path d="M500.16 110.93a88.84 88.84 0 0117.37-22.78 89.92 89.92 0 0116.7 22.78h-34.07z" fill="#E86E6E"/>
  <path d="M517.6 162.17c10.09 0 18.26-8.01 18.26-17.9 0-9.88-8.17-17.89-18.25-17.89-10.09 0-18.26 8.01-18.26 17.9 0 9.88 8.17 17.89 18.26 17.89z" fill="url(#paint8_linear)"/>
  <path d="M517.6 158.92c8.3 0 15.02-6.56 15.02-14.64 0-8.1-6.72-14.65-15.01-14.65-8.3 0-15.01 6.56-15.01 14.65 0 8.08 6.72 14.64 15 14.64z" fill="#588CBE"/>
  <path d="M520.85 138.58a2.03 2.03 0 100-4.06 2.03 2.03 0 000 4.06zM526.13 141.84a1.62 1.62 0 100-3.25 1.62 1.62 0 000 3.25z" fill="#fff"/>
  <path opacity=".1" d="M533.83 162.98a1.22 1.22 0 100-2.43 1.22 1.22 0 000 2.43z" fill="#000"/>
  <path d="M517.6 179.25a3.64 3.64 0 013.66 3.66v.16l-2.27 45.31c0 .73-.65 1.3-1.38 1.3a1.4 1.4 0 01-1.38-1.3l-2.27-45.3a3.65 3.65 0 013.49-3.83h.16z" fill="#E86E6E"/>
  <defs>
    <linearGradient id="paint0_linear" x1="249.19" y1="47.68" x2="257.13" y2="56.02" gradientUnits="userSpaceOnUse">
      <stop stop-color="#FAFAFA"/>
      <stop offset="1" stop-color="#F5F5F5"/>
    </linearGradient>
    <linearGradient id="paint1_linear" x1="589.41" y1="123.94" x2="692.05" y2="204.27" gradientUnits="userSpaceOnUse">
      <stop stop-color="#798BA0"/>
      <stop offset="1" stop-color="#607286"/>
    </linearGradient>
    <linearGradient id="paint2_linear" x1="598.9" y1="136.6" x2="666.89" y2="186.99" gradientUnits="userSpaceOnUse">
      <stop offset=".02" stop-color="#F5F5F5"/>
      <stop offset=".98" stop-color="#fff"/>
    </linearGradient>
    <linearGradient id="paint3_linear" x1="574.41" y1="199.63" x2="599.74" y2="225.64" gradientUnits="userSpaceOnUse">
      <stop stop-color="#E6E6E6"/>
      <stop offset="1" stop-color="#CCC"/>
    </linearGradient>
    <linearGradient id="paint4_linear" x1="594.55" y1="220.04" x2="579.17" y2="205.05" gradientUnits="userSpaceOnUse">
      <stop stop-color="#999"/>
      <stop offset="1" stop-color="#4D4D4D"/>
    </linearGradient>
    <linearGradient id="paint5_linear" x1="582.6" y1="208.1" x2="591.37" y2="217.11" gradientUnits="userSpaceOnUse">
      <stop stop-color="#E6E6E6"/>
      <stop offset="1" stop-color="#CCC"/>
    </linearGradient>
    <linearGradient id="paint6_linear" x1="50.8" y1="208.88" x2="64.11" y2="229.05" gradientUnits="userSpaceOnUse">
      <stop stop-color="#E6E6E6"/>
      <stop offset="1" stop-color="#CCC"/>
    </linearGradient>
    <linearGradient id="paint7_linear" x1="487.11" y1="93.7" x2="580.23" y2="135.59" gradientUnits="userSpaceOnUse">
      <stop stop-color="#FAFAFA"/>
      <stop offset="1" stop-color="#F5F5F5"/>
    </linearGradient>
    <linearGradient id="paint8_linear" x1="499.35" y1="126.38" x2="533.92" y2="161.65" gradientUnits="userSpaceOnUse">
      <stop stop-color="#EAEAEA"/>
      <stop offset="1" stop-color="#DDD"/>
    </linearGradient>
  </defs>
</svg>